<svg width="600" height="900" viewBox="0 0 600 900" fill="none" xmlns="http://www.w3.org/2000/svg">
  <rect width="600" height="900" fill="#0B1020"/>
  <rect x="28" y="28" width="544" height="844" rx="28" fill="url(#bg)"/>
  <circle cx="468" cy="170" r="116" fill="url(#glow)" fill-opacity="0.85"/>
  <path d="M74 636C170 528 286 476 430 454L526 534C392 562 278 626 160 760L74 636Z" fill="#F97316" fill-opacity="0.84"/>
  <path d="M84 758C176 650 296 590 470 566L522 624C332 666 214 742 120 838L84 758Z" fill="#FB7185" fill-opacity="0.78"/>
  <path d="M280 178L344 270L430 236L382 328L462 392L356 402L338 510L274 424L186 456L236 364L154 300L260 290L280 178Z" fill="#F8FAFC"/>
  <path d="M118 254L260 170L208 324L118 254Z" fill="#38BDF8" fill-opacity="0.92"/>
  <path d="M422 132L500 238L392 256L422 132Z" fill="#FDE68A" fill-opacity="0.92"/>
  <rect x="74" y="70" width="188" height="34" rx="17" fill="#111827" fill-opacity="0.82"/>
  <text x="96" y="93" fill="#FDE68A" font-family="Arial, Helvetica, sans-serif" font-size="20" font-weight="700" letter-spacing="2">
    CINEVERSE
  </text>
  <text x="74" y="726" fill="#F8FAFC" font-family="Arial, Helvetica, sans-serif" font-size="62" font-weight="800" letter-spacing="1">
    MISION
  </text>
  <text x="74" y="792" fill="#F8FAFC" font-family="Arial, Helvetica, sans-serif" font-size="62" font-weight="800" letter-spacing="1">
    IMPOSIBLE
  </text>
  <text x="74" y="840" fill="#FDBA74" font-family="Arial, Helvetica, sans-serif" font-size="26" font-weight="700" letter-spacing="5">
    SENTENCIA FINAL
  </text>
  <text x="76" y="876" fill="#D1D5DB" font-family="Arial, Helvetica, sans-serif" font-size="20" font-weight="400" letter-spacing="1">
    Ethan Hunt vuelve para la mision definitiva
  </text>
  <defs>
    <linearGradient id="bg" x1="94" y1="58" x2="528" y2="860" gradientUnits="userSpaceOnUse">
      <stop stop-color="#111827"/>
      <stop offset="0.4" stop-color="#172554"/>
      <stop offset="1" stop-color="#2D0B3A"/>
    </linearGradient>
    <radialGradient id="glow" cx="0" cy="0" r="1" gradientUnits="userSpaceOnUse" gradientTransform="translate(468 170) rotate(90) scale(116)">
      <stop stop-color="#FDE68A"/>
      <stop offset="1" stop-color="#F59E0B" stop-opacity="0"/>
    </radialGradient>
  </defs>
</svg>
